<svg width="10" height="15" viewBox="0 0 10 15" fill="none" xmlns="http://www.w3.org/2000/svg">
<path d="M9.80554 6.5625V15H0V6.5625H1.63426V3.82324C1.63426 3.2959 1.71725 2.80029 1.88323 2.33643C2.04921 1.87256 2.27902 1.46729 2.57268 1.12061C2.86633 0.773926 3.21106 0.500488 3.60686 0.300293C4.00265 0.100098 4.43462 0 4.90277 0C5.36666 0 5.7965 0.100098 6.1923 0.300293C6.5881 0.500488 6.93495 0.773926 7.23286 1.12061C7.53078 1.46729 7.76059 1.87256 7.92232 2.33643C8.08404 2.80029 8.16703 3.2959 8.17128 3.82324V6.5625H9.80554ZM2.45139 6.5625H7.35416V3.82324C7.35416 3.42773 7.29245 3.05664 7.16903 2.70996C7.04561 2.36328 6.87537 2.05566 6.65832 1.78711C6.44127 1.51855 6.18166 1.31104 5.87949 1.16455C5.57733 1.01807 5.25175 0.942383 4.90277 0.9375C4.55379 0.9375 4.23034 1.01318 3.93243 1.16455C3.63452 1.31592 3.37491 1.52344 3.15361 1.78711C2.9323 2.05078 2.75994 2.35596 2.63652 2.70264C2.5131 3.04932 2.45139 3.42285 2.45139 3.82324V6.5625Z" fill="black"/>
<ellipse cx="4.6304" cy="10.3125" rx="1.36191" ry="1.5625" fill="#FFFEFE"/>
</svg>
