<svg width="26" height="26" viewBox="0 0 26 26" fill="none" xmlns="http://www.w3.org/2000/svg">
<circle cx="13" cy="13" r="13" fill="#B32424"/>
<path d="M17.0234 15.8003C16.6891 16.2362 16.2257 16.5662 15.6333 16.7905C15.0409 17.0148 14.368 17.127 13.6147 17.127C12.8403 17.127 12.1548 16.9513 11.5581 16.6001C10.9614 16.2489 10.5002 15.7474 10.1743 15.0957C9.8527 14.4398 9.68555 13.6759 9.67285 12.8042V12.0806C9.67285 10.6841 10.0072 9.5944 10.6758 8.81152C11.3444 8.02441 12.2775 7.63086 13.4751 7.63086C14.5034 7.63086 15.3201 7.88477 15.9253 8.39258C16.5304 8.90039 16.8944 9.63249 17.0171 10.5889H15.4429C15.2651 9.47591 14.6198 8.91943 13.5068 8.91943C12.7874 8.91943 12.2394 9.17969 11.8628 9.7002C11.4904 10.2165 11.2979 10.9761 11.2852 11.979V12.6899C11.2852 13.6886 11.4946 14.4652 11.9136 15.0195C12.3368 15.5697 12.9229 15.8447 13.6719 15.8447C14.4928 15.8447 15.0768 15.6585 15.4238 15.2861V13.4771H13.5195V12.2583H17.0234V15.8003Z" fill="#FDF7F7"/>
</svg>
